<svg width="44" height="44" viewBox="0 0 44 44" fill="none" xmlns="http://www.w3.org/2000/svg">
<g clip-path="url(#clip0_307_6288)">
<path d="M41.8 2.2H35.2V0H8.8V2.2H2.2C0.88 2.2 0 3.08 0 4.4V9.68C0 14.74 3.74 18.92 8.8 19.58V19.8C8.8 26.18 13.2 31.46 19.14 32.78L17.6 37.4H12.54C11.66 37.4 10.78 38.06 10.56 38.94L8.8 44H35.2L33.44 38.94C33.22 38.06 32.34 37.4 31.46 37.4H26.4L24.86 32.78C30.8 31.46 35.2 26.18 35.2 19.8V19.58C40.26 18.92 44 14.74 44 9.68V4.4C44 3.08 43.12 2.2 41.8 2.2ZM8.8 15.18C6.38 14.52 4.4 12.32 4.4 9.68V6.6H8.8V15.18ZM26.4 22L22 19.58L17.6 22L18.7 17.6L15.4 13.2H20.02L22 8.8L23.98 13.2H28.6L25.3 17.6L26.4 22ZM39.6 9.68C39.6 12.32 37.62 14.74 35.2 15.18V6.6H39.6V9.68Z" fill="black"/>
</g>
<defs>
<clipPath id="clip0_307_6288">
<rect width="44" height="44" fill="white"/>
</clipPath>
</defs>
</svg>
