<svg width="32" height="32" viewBox="0 0 32 32" fill="none" xmlns="http://www.w3.org/2000/svg">
<path fill-rule="evenodd" clip-rule="evenodd" d="M7.27856 7.89913C8.42856 6.47538 9.26487 4.58525 9.77056 2.26832L5.88894 2.29038L1.12144 7.89907L7.27856 7.89913ZM10.8649 2.26163L19.2116 2.2135C19.6741 4.47563 20.4334 6.38113 21.4757 7.89907H8.61006C9.64506 6.39188 10.4012 4.50257 10.8649 2.26163ZM20.3018 2.2075C20.8056 4.55188 21.6474 6.46332 22.8073 7.899H29.179L24.6339 2.18213L20.3018 2.2075ZM29.7528 8.968H23.1995V9.60207L23.1988 9.62213C23.1988 9.62613 23.1996 9.62944 23.1995 9.63282C23.2102 10.4884 23.5569 11.3054 24.1647 11.9075C24.7726 12.5096 25.5929 12.8485 26.4485 12.851C28.2396 12.851 29.7529 11.3632 29.7529 9.60207V8.968H29.7528ZM18.8813 12.8511C19.7426 12.8501 20.5685 12.5075 21.1776 11.8984C21.7867 11.2893 22.1293 10.4635 22.1303 9.60207V8.968H15.6331V9.60207L15.6325 9.63082L15.6331 9.64619C15.648 10.499 15.9964 11.3121 16.6035 11.9111C17.2107 12.5102 18.0283 12.8476 18.8813 12.8511ZM11.315 12.8511C12.1764 12.85 13.0021 12.5073 13.6112 11.8983C14.2203 11.2892 14.5629 10.4634 14.564 9.60207V8.968H8.06694V9.60207L8.06625 9.62482C8.06625 9.62882 8.06694 9.63282 8.06694 9.63732C8.07854 10.492 8.42558 11.3079 9.03323 11.909C9.64087 12.5102 10.4604 12.8484 11.3152 12.8509L11.315 12.8511ZM3.74881 12.8511C4.61017 12.85 5.43593 12.5073 6.045 11.8983C6.65407 11.2892 6.99672 10.4634 6.99781 9.60207V8.968H0.5V9.60207C0.501092 10.4634 0.843746 11.2892 1.45282 11.8983C2.06188 12.5073 2.88765 12.85 3.749 12.8511H3.74881ZM7.53288 11.6792C7.90474 12.3578 8.45227 12.9238 9.11809 13.3181C9.7839 13.7123 10.5435 13.9202 11.3173 13.92C12.0911 13.9198 12.8505 13.7115 13.5162 13.3169C14.1818 12.9223 14.729 12.356 15.1005 11.6772C15.4718 12.356 16.0188 12.9223 16.6843 13.3169C17.3498 13.7115 18.1092 13.9198 18.8829 13.92C19.6566 13.9201 20.416 13.7121 21.0816 13.3177C21.7473 12.9234 22.2945 12.3572 22.6661 11.6786C23.0367 12.3516 23.5797 12.9138 24.2395 13.3076C24.8992 13.7014 25.6518 13.9125 26.4201 13.9193V15.8873L24.134 17.2069C23.9985 17.2847 23.8841 17.3943 23.8005 17.5263C23.7979 17.5302 23.7951 17.5356 23.7917 17.5403L23.773 17.5723C23.772 17.5738 23.7711 17.5754 23.7703 17.577C23.7696 17.5776 23.7696 17.579 23.7689 17.5797C23.6925 17.7211 23.6525 17.8793 23.6527 18.04V22.0766C23.6516 22.2457 23.6956 22.412 23.7801 22.5585C23.8646 22.7049 23.9867 22.8262 24.1336 22.9098L26.4199 24.2299V26.5349H21.3148V26.2423C21.3132 25.0274 20.8299 23.8628 19.9708 23.0038C19.1117 22.1449 17.947 21.6617 16.7322 21.6604H13.4766C12.2618 21.6617 11.097 22.1449 10.2379 23.0038C9.3788 23.8628 8.89549 25.0275 8.894 26.2423V26.5349H4.2835V13.8849C4.96083 13.7998 5.60838 13.5554 6.17317 13.172C6.73797 12.7885 7.20397 12.2768 7.53306 11.6787L7.53288 11.6792ZM15.104 21.2805C15.8512 21.2806 16.5817 21.0591 17.203 20.644C17.8243 20.2289 18.3086 19.6389 18.5945 18.9486C18.8805 18.2583 18.9554 17.4986 18.8096 16.7658C18.6639 16.0329 18.3041 15.3597 17.7757 14.8314C17.2473 14.303 16.5742 13.9432 15.8413 13.7975C15.1084 13.6517 14.3488 13.7265 13.6585 14.0125C12.9682 14.2985 12.3782 14.7828 11.9631 15.4041C11.548 16.0254 11.3265 16.7559 11.3266 17.5031C11.3278 18.5045 11.7261 19.4647 12.4343 20.1728C13.1424 20.881 14.1025 21.2793 15.104 21.2805ZM15.104 14.7939C14.5683 14.7939 14.0446 14.9529 13.5992 15.2505C13.1538 15.5482 12.8066 15.9712 12.6016 16.4662C12.3967 16.9612 12.343 17.5058 12.4476 18.0312C12.5521 18.5566 12.8101 19.0393 13.1889 19.4181C13.5677 19.7969 14.0503 20.0549 14.5757 20.1594C15.1012 20.264 15.6458 20.2104 16.1407 20.0054C16.6357 19.8004 17.0588 19.4533 17.3564 19.0079C17.6541 18.5625 17.8131 18.0388 17.8131 17.5031C17.8124 16.7848 17.5267 16.0961 17.0188 15.5882C16.5109 15.0803 15.8223 14.7946 15.104 14.7939ZM16.7323 22.7295H13.4765C12.5451 22.7305 11.652 23.1009 10.9933 23.7594C10.3346 24.418 9.96408 25.3109 9.96294 26.2424V26.535H11.3855V26.3199C11.3892 26.1806 11.4471 26.0483 11.5469 25.9511C11.6467 25.8539 11.7806 25.7995 11.9199 25.7995C12.0592 25.7995 12.193 25.8539 12.2928 25.9511C12.3926 26.0483 12.4506 26.1806 12.4543 26.3199V26.535H17.7542V26.3199C17.7558 26.1791 17.8128 26.0446 17.9128 25.9456C18.0129 25.8466 18.148 25.7911 18.2888 25.7911C18.4296 25.7911 18.5646 25.8466 18.6647 25.9456C18.7648 26.0446 18.8218 26.1791 18.8233 26.3199V26.535H20.2457V26.2424C20.2445 25.311 19.874 24.418 19.2154 23.7595C18.5567 23.1009 17.6637 22.7305 16.7323 22.7295ZM24.7221 18.6728V22.0153L27.6187 23.6876L27.715 20.2255L24.7219 18.6728H24.7221ZM25.3 17.7686L28.2496 19.2985L30.9529 17.7866L28.1112 16.1454L25.3 17.7686ZM28.7847 20.2245L31.5 18.7049V22.0153L28.6899 23.6381L28.7847 20.2242L28.7847 20.2245ZM28.0954 27.6044H2.1135C1.96817 27.6044 1.82426 27.633 1.68999 27.6886C1.55572 27.7442 1.43372 27.8258 1.33095 27.9285C1.22819 28.0313 1.14667 28.1533 1.09105 28.2876C1.03544 28.4218 1.00681 28.5657 1.00681 28.7111C1.00681 28.8564 1.03544 29.0003 1.09105 29.1346C1.14667 29.2688 1.22819 29.3908 1.33095 29.4936C1.43372 29.5964 1.55572 29.6779 1.68999 29.7335C1.82426 29.7891 1.96817 29.8178 2.1135 29.8178H28.0952C28.3888 29.8178 28.6703 29.7012 28.8778 29.4936C29.0853 29.2861 29.2019 29.0046 29.2019 28.7111C29.2019 28.4176 29.0853 28.1361 28.8778 27.9285C28.6703 27.721 28.3888 27.6044 28.0952 27.6044H28.0954Z" fill="#1E88E5"/>
</svg>
