<svg width="24" height="24" viewBox="0 0 24 24" fill="none" xmlns="http://www.w3.org/2000/svg">
<g clip-path="url(#clip0_794_3545)">
<path d="M12.0009 0.375C6.83858 0.375 2.63867 4.575 2.63867 9.7372C2.63867 14.8994 6.83858 19.0995 12.0009 19.0995C17.1633 19.0995 21.3632 14.8995 21.3632 9.7372C21.3632 4.57495 17.1633 0.375 12.0009 0.375ZM17.7958 8.47753L15.4965 10.8418L15.9665 14.1068C15.9848 14.2335 15.9681 14.3627 15.9182 14.4806C15.8684 14.5986 15.7873 14.7006 15.6838 14.7758C15.5802 14.8511 15.458 14.8966 15.3305 14.9075C15.2029 14.9184 15.0748 14.8943 14.96 14.8377L12.0009 13.3803L9.04161 14.8377C8.92674 14.8943 8.79862 14.9184 8.67105 14.9075C8.54349 14.8966 8.42132 14.851 8.31774 14.7758C8.21416 14.7005 8.13309 14.5984 8.08329 14.4804C8.03348 14.3625 8.01682 14.2332 8.03511 14.1065L8.50644 10.8416L6.20717 8.47753C6.11794 8.38577 6.05545 8.27138 6.02644 8.14671C5.99743 8.02204 6.003 7.89182 6.04256 7.77009C6.08211 7.64835 6.15414 7.53973 6.25088 7.45592C6.34763 7.37211 6.46542 7.3163 6.59155 7.2945L9.84073 6.73289L11.3789 3.81563C11.4386 3.70239 11.5281 3.6076 11.6377 3.54147C11.7473 3.47535 11.8729 3.4404 12.0009 3.4404C12.1289 3.4404 12.2545 3.47535 12.3641 3.54147C12.4737 3.6076 12.5632 3.70239 12.6229 3.81563L14.1609 6.73298L17.4115 7.29455C17.5376 7.31634 17.6554 7.37215 17.7522 7.45596C17.8489 7.53977 17.9209 7.64841 17.9605 7.77015C18.0001 7.89189 18.0056 8.02212 17.9766 8.1468C17.9476 8.27147 17.8851 8.38586 17.7958 8.47763L17.7958 8.47753ZM13.5806 8.05969L15.858 8.45316L14.2473 10.1093C14.1722 10.1865 14.1159 10.2799 14.0826 10.3823C14.0493 10.4847 14.04 10.5934 14.0554 10.7L14.3847 12.987L12.3116 11.9658C12.2149 11.9182 12.1086 11.8934 12.0009 11.8934C11.8932 11.8934 11.7869 11.9182 11.6903 11.9658L9.61761 12.9865L9.9477 10.7C9.9631 10.5934 9.95381 10.4848 9.92054 10.3824C9.88728 10.28 9.83093 10.1866 9.75584 10.1094L8.14512 8.45311L10.4212 8.05969C10.5273 8.04136 10.6277 7.99892 10.7148 7.93566C10.8019 7.87239 10.8733 7.78997 10.9235 7.69477L12.0009 5.65106L13.0783 7.69481C13.1285 7.79002 13.1999 7.87243 13.287 7.93569C13.3741 7.99895 13.4745 8.04138 13.5806 8.05969ZM17.8315 18.7867V22.9219C17.8315 23.0388 17.8024 23.1538 17.7467 23.2566C17.691 23.3594 17.6106 23.4467 17.5127 23.5106C17.4149 23.5745 17.3026 23.613 17.1861 23.6226C17.0696 23.6322 16.9525 23.6126 16.8455 23.5656L12.0009 21.4365L7.15775 23.5656C7.05073 23.6126 6.93366 23.6322 6.81715 23.6226C6.70064 23.613 6.58836 23.5746 6.49046 23.5107C6.39257 23.4468 6.31216 23.3595 6.2565 23.2566C6.20084 23.1538 6.17169 23.0388 6.17169 22.9219V18.7875C7.90922 19.9093 9.93352 20.5059 12.0017 20.5057C14.0699 20.5056 16.0941 19.9087 17.8315 18.7867Z" fill="#F97316"/>
</g>
<defs>
<clipPath id="clip0_794_3545">
<rect width="24" height="24" fill="white"/>
</clipPath>
</defs>
</svg>
