<svg width="44" height="44" viewBox="0 0 44 44" fill="none" xmlns="http://www.w3.org/2000/svg">
<path d="M22.9803 23.6531C22.3515 23.892 21.6571 23.8926 21.0278 23.655L9.16797 19.1367V29.3786C9.16787 29.5645 9.22428 29.746 9.32971 29.8991C9.43514 30.0521 9.58461 30.1695 9.7583 30.2357L21.675 34.7732C21.8851 34.8534 22.1175 34.8534 22.3276 34.7732L34.2443 30.2357C34.418 30.1695 34.5675 30.0521 34.6729 29.8991C34.7783 29.746 34.8347 29.5645 34.8346 29.3786V19.1367L22.9803 23.6531Z" fill="black"/>
<path d="M41.5763 12.8929L22.3263 5.55961C22.116 5.48013 21.8839 5.48013 21.6736 5.55961L2.4236 12.8929C2.24968 12.9589 2.09995 13.0762 1.99428 13.2293C1.88862 13.3824 1.83203 13.564 1.83203 13.75C1.83203 13.936 1.88862 14.1176 1.99428 14.2707C2.09995 14.4238 2.24968 14.5411 2.4236 14.6071L21.6736 21.9404C21.8839 22.0202 22.116 22.0202 22.3263 21.9404L41.5763 14.6071C41.7502 14.5411 41.8999 14.4238 42.0056 14.2707C42.1113 14.1176 42.1678 13.936 42.1678 13.75C42.1678 13.564 42.1113 13.3824 42.0056 13.2293C41.8999 13.0762 41.7502 12.9589 41.5763 12.8929Z" fill="black"/>
<path d="M6.41667 33.0001C6.17355 33.0001 5.94039 32.9036 5.76849 32.7317C5.59658 32.5597 5.5 32.3266 5.5 32.0835V15.1471C5.5 14.904 5.59658 14.6709 5.76849 14.499C5.94039 14.327 6.17355 14.2305 6.41667 14.2305C6.65978 14.2305 6.89294 14.327 7.06485 14.499C7.23676 14.6709 7.33333 14.904 7.33333 15.1471V32.0835C7.33333 32.3266 7.23676 32.5597 7.06485 32.7317C6.89294 32.9036 6.65978 33.0001 6.41667 33.0001Z" fill="black"/>
<path d="M6.41797 31.166C5.68885 31.1667 4.9898 31.4567 4.47423 31.9723C3.95866 32.4878 3.6687 33.1869 3.66797 33.916V37.5827C3.66797 37.8258 3.76455 38.059 3.93645 38.2309C4.10836 38.4028 4.34152 38.4993 4.58464 38.4993H8.2513C8.49442 38.4993 8.72757 38.4028 8.89948 38.2309C9.07139 38.059 9.16797 37.8258 9.16797 37.5827V33.916C9.16724 33.1869 8.87728 32.4878 8.36171 31.9723C7.84614 31.4567 7.14709 31.1667 6.41797 31.166Z" fill="black"/>
</svg>
