<svg width="44" height="44" viewBox="0 0 44 44" fill="none" xmlns="http://www.w3.org/2000/svg">
<path d="M29.7344 24.5781C36.1318 24.5781 41.3359 19.374 41.3359 12.9766C41.3359 6.57912 36.1318 1.375 29.7344 1.375C23.3369 1.375 18.1328 6.57912 18.1328 12.9766C18.1328 19.374 23.3369 24.5781 29.7344 24.5781ZM31.0234 14.2656H28.4453C26.3129 14.2656 24.5781 12.5309 24.5781 10.3984C24.5781 8.26598 26.3129 6.53125 28.4453 6.53125V3.95312H31.0234V6.53125C33.1559 6.53125 34.8906 8.26598 34.8906 10.3984H32.3125C32.3125 9.68722 31.7347 9.10938 31.0234 9.10938H28.4453C27.7341 9.10938 27.1562 9.68722 27.1562 10.3984C27.1562 11.1097 27.7341 11.6875 28.4453 11.6875H31.0234C33.1559 11.6875 34.8906 13.4222 34.8906 15.5547C34.8906 17.6871 33.1559 19.4219 31.0234 19.4219V22H28.4453V19.4219C26.3129 19.4219 24.5781 17.6871 24.5781 15.5547H27.1562C27.1562 16.2659 27.7341 16.8438 28.4453 16.8438H31.0234C31.7347 16.8438 32.3125 16.2659 32.3125 15.5547C32.3125 14.8435 31.7347 14.2656 31.0234 14.2656ZM0 27.1562H5.15625V38.7578H0V27.1562ZM37.3899 30.2384L28.7789 34.8906H15.5547V32.3125H28.4453V31.0234C28.4453 28.8876 26.7139 27.1562 24.5781 27.1562H19.9115C18.9498 26.3569 16.4233 24.5781 12.9766 24.5781C10.8591 24.5781 9.00788 25.2501 7.73438 25.9533V39.0579L24.7607 42.625L44 32.8387C44 32.8387 43.3172 31.6458 43.3092 31.632C42.1389 29.6172 39.4271 29.1071 37.3899 30.2384Z" fill="black"/>
</svg>
