<svg width="44" height="44" viewBox="0 0 44 44" fill="none" xmlns="http://www.w3.org/2000/svg">
<path d="M17.4167 18.3333C20.9605 18.3333 23.8333 15.4605 23.8333 11.9167C23.8333 8.37284 20.9605 5.5 17.4167 5.5C13.8728 5.5 11 8.37284 11 11.9167C11 15.4605 13.8728 18.3333 17.4167 18.3333Z" fill="#F97316" stroke="#F97316" stroke-width="3.66667" stroke-linecap="round" stroke-linejoin="round"/>
<path d="M29.332 18.333L34.832 12.833L40.332 18.333" stroke="#F97316" stroke-width="3.66667" stroke-linecap="round" stroke-linejoin="round"/>
<path d="M3.66602 37.4003V38.5003H31.166V37.4003C31.166 33.2933 31.166 31.2398 30.3668 29.6711C29.6637 28.2912 28.5418 27.1693 27.1619 26.4662C25.5932 25.667 23.5397 25.667 19.4327 25.667H15.3993C11.2923 25.667 9.2388 25.667 7.67009 26.4662C6.29023 27.1693 5.16837 28.2912 4.4653 29.6711C3.66602 31.2398 3.66602 33.2933 3.66602 37.4003Z" fill="#F97316" stroke="#F97316" stroke-width="3.66667" stroke-linecap="round" stroke-linejoin="round"/>
</svg>
