<svg width="44" height="44" viewBox="0 0 44 44" fill="none" xmlns="http://www.w3.org/2000/svg">
<path d="M31.1667 25.6667C31.6529 25.6667 32.1192 25.4735 32.463 25.1297C32.8068 24.7859 33 24.3196 33 23.8333C33 23.3471 32.8068 22.8808 32.463 22.537C32.1192 22.1932 31.6529 22 31.1667 22C30.6804 22 30.2141 22.1932 29.8703 22.537C29.5265 22.8808 29.3333 23.3471 29.3333 23.8333C29.3333 24.3196 29.5265 24.7859 29.8703 25.1297C30.2141 25.4735 30.6804 25.6667 31.1667 25.6667ZM31.1667 33C31.6529 33 32.1192 32.8068 32.463 32.463C32.8068 32.1192 33 31.6529 33 31.1667C33 30.6804 32.8068 30.2141 32.463 29.8703C32.1192 29.5265 31.6529 29.3333 31.1667 29.3333C30.6804 29.3333 30.2141 29.5265 29.8703 29.8703C29.5265 30.2141 29.3333 30.6804 29.3333 31.1667C29.3333 31.6529 29.5265 32.1192 29.8703 32.463C30.2141 32.8068 30.6804 33 31.1667 33ZM23.8333 23.8333C23.8333 24.3196 23.6402 24.7859 23.2964 25.1297C22.9525 25.4735 22.4862 25.6667 22 25.6667C21.5138 25.6667 21.0475 25.4735 20.7036 25.1297C20.3598 24.7859 20.1667 24.3196 20.1667 23.8333C20.1667 23.3471 20.3598 22.8808 20.7036 22.537C21.0475 22.1932 21.5138 22 22 22C22.4862 22 22.9525 22.1932 23.2964 22.537C23.6402 22.8808 23.8333 23.3471 23.8333 23.8333ZM23.8333 31.1667C23.8333 31.6529 23.6402 32.1192 23.2964 32.463C22.9525 32.8068 22.4862 33 22 33C21.5138 33 21.0475 32.8068 20.7036 32.463C20.3598 32.1192 20.1667 31.6529 20.1667 31.1667C20.1667 30.6804 20.3598 30.2141 20.7036 29.8703C21.0475 29.5265 21.5138 29.3333 22 29.3333C22.4862 29.3333 22.9525 29.5265 23.2964 29.8703C23.6402 30.2141 23.8333 30.6804 23.8333 31.1667ZM12.8333 25.6667C13.3196 25.6667 13.7859 25.4735 14.1297 25.1297C14.4735 24.7859 14.6667 24.3196 14.6667 23.8333C14.6667 23.3471 14.4735 22.8808 14.1297 22.537C13.7859 22.1932 13.3196 22 12.8333 22C12.3471 22 11.8808 22.1932 11.537 22.537C11.1932 22.8808 11 23.3471 11 23.8333C11 24.3196 11.1932 24.7859 11.537 25.1297C11.8808 25.4735 12.3471 25.6667 12.8333 25.6667ZM12.8333 33C13.3196 33 13.7859 32.8068 14.1297 32.463C14.4735 32.1192 14.6667 31.6529 14.6667 31.1667C14.6667 30.6804 14.4735 30.2141 14.1297 29.8703C13.7859 29.5265 13.3196 29.3333 12.8333 29.3333C12.3471 29.3333 11.8808 29.5265 11.537 29.8703C11.1932 30.2141 11 30.6804 11 31.1667C11 31.6529 11.1932 32.1192 11.537 32.463C11.8808 32.8068 12.3471 33 12.8333 33Z" fill="#1E88E5"/>
<path fill-rule="evenodd" clip-rule="evenodd" d="M12.8328 3.20801C13.1975 3.20801 13.5472 3.35287 13.8051 3.61074C14.0629 3.8686 14.2078 4.21834 14.2078 4.58301V5.98184C15.4215 5.95801 16.758 5.95801 18.2283 5.95801H25.7688C27.241 5.95801 28.5775 5.95801 29.7911 5.98184V4.58301C29.7911 4.21834 29.936 3.8686 30.1939 3.61074C30.4517 3.35287 30.8015 3.20801 31.1661 3.20801C31.5308 3.20801 31.8805 3.35287 32.1384 3.61074C32.3963 3.8686 32.5411 4.21834 32.5411 4.58301V6.09917C33.0178 6.13584 33.4694 6.18229 33.896 6.23851C36.0446 6.52817 37.7845 7.13684 39.1576 8.50817C40.529 9.88134 41.1376 11.6212 41.4273 13.7698C41.7078 15.8598 41.7078 18.5273 41.7078 21.897V25.769C41.7078 29.1387 41.7078 31.808 41.4273 33.8962C41.1376 36.0448 40.529 37.7847 39.1576 39.1578C37.7845 40.5292 36.0446 41.1378 33.896 41.4275C31.806 41.708 29.1385 41.708 25.7688 41.708H18.232C14.8623 41.708 12.193 41.708 10.1048 41.4275C7.95614 41.1378 6.2163 40.5292 4.84314 39.1578C3.4718 37.7847 2.86314 36.0448 2.57347 33.8962C2.29297 31.8062 2.29297 29.1387 2.29297 25.769V21.897C2.29297 18.5273 2.29297 15.858 2.57347 13.7698C2.86314 11.6212 3.4718 9.88134 4.84314 8.50817C6.2163 7.13684 7.95614 6.52817 10.1048 6.23851C10.5326 6.18229 10.9842 6.13584 11.4596 6.09917V4.58301C11.4596 4.21865 11.6042 3.86919 11.8617 3.61138C12.1192 3.35357 12.4684 3.20849 12.8328 3.20801ZM10.4678 8.96467C8.6253 9.21217 7.56197 9.67784 6.78647 10.4533C6.01097 11.2288 5.5453 12.2922 5.2978 14.1347C5.25625 14.4463 5.2208 14.7757 5.19147 15.1228H38.8075C38.7781 14.7757 38.7427 14.4457 38.7011 14.1328C38.4536 12.2903 37.988 11.227 37.2125 10.4515C36.437 9.67601 35.3736 9.21034 33.5293 8.96284C31.6465 8.70984 29.1623 8.70617 25.6661 8.70617H18.3328C14.8366 8.70617 12.3543 8.71167 10.4678 8.96467ZM5.04114 21.9997C5.04114 20.434 5.04114 19.0718 5.06497 17.8747H38.934C38.9578 19.0718 38.9578 20.434 38.9578 21.9997V25.6663C38.9578 29.1625 38.9541 31.6467 38.7011 33.5313C38.4536 35.3738 37.988 36.4372 37.2125 37.2127C36.437 37.9882 35.3736 38.4538 33.5293 38.7013C31.6465 38.9543 29.1623 38.958 25.6661 38.958H18.3328C14.8366 38.958 12.3543 38.9543 10.4678 38.7013C8.6253 38.4538 7.56197 37.9882 6.78647 37.2127C6.01097 36.4372 5.5453 35.3738 5.2978 33.5295C5.0448 31.6467 5.04114 29.1625 5.04114 25.6663V21.9997Z" fill="#1E88E5"/>
</svg>
